# Blender 4.1.0
# www.blender.org
mtllib Sun.mtl
o 球
v 0.000000 9.659263 -2.588192
v 0.000000 8.660258 -5.000002
v 0.000000 5.000002 -8.660258
v 0.000000 2.588192 -9.659263
v 0.000000 0.000000 -10.000005
v 0.000000 -2.588192 -9.659263
v 0.000000 -5.000002 -8.660258
v 0.000000 -8.660258 -5.000002
v 0.000000 -9.659263 -2.588192
v 0.990458 9.659263 -2.391177
v 1.913418 8.660258 -4.619400
v 2.705982 7.071071 -6.532818
v 3.314137 5.000002 -8.001035
v 3.696440 2.588192 -8.923995
v 3.826836 0.000000 -9.238799
v 3.696440 -2.588192 -8.923995
v 3.314137 -5.000002 -8.001035
v 2.705982 -7.071071 -6.532818
v 1.913418 -8.660258 -4.619400
v 0.990458 -9.659263 -2.391177
v 0.000000 10.000005 0.000000
v 1.830128 9.659263 -1.830128
v 3.535536 8.660258 -3.535535
v 5.000002 7.071071 -5.000002
v 6.123727 5.000002 -6.123726
v 6.830131 2.588192 -6.830129
v 7.071071 0.000000 -7.071070
v 6.830131 -2.588192 -6.830129
v 6.123727 -5.000002 -6.123726
v 5.000002 -7.071071 -5.000002
v 3.535536 -8.660258 -3.535535
v 1.830128 -9.659263 -1.830128
v 2.391178 9.659263 -0.990458
v 4.619400 8.660258 -1.913417
v 6.532818 7.071071 -2.705981
v 8.001035 5.000002 -3.314136
v 8.923995 2.588192 -3.696439
v 9.238799 0.000000 -3.826834
v 8.923995 -2.588192 -3.696439
v 8.001035 -5.000002 -3.314136
v 6.532818 -7.071071 -2.705981
v 4.619400 -8.660258 -1.913417
v 2.391178 -9.659263 -0.990458
v 2.588192 9.659263 0.000000
v 5.000001 8.660258 0.000001
v 7.071070 7.071071 0.000001
v 8.660257 5.000002 0.000001
v 9.659262 2.588192 0.000001
v 10.000003 0.000000 0.000002
v 9.659262 -2.588192 0.000001
v 8.660257 -5.000002 0.000001
v 7.071070 -7.071071 0.000001
v 5.000001 -8.660258 0.000001
v 2.588192 -9.659263 0.000000
v 2.391177 9.659263 0.990459
v 4.619399 8.660258 1.913419
v 6.532816 7.071071 2.705982
v 8.001034 5.000002 3.314138
v 8.923993 2.588192 3.696441
v 9.238797 0.000000 3.826837
v 8.923993 -2.588192 3.696441
v 8.001034 -5.000002 3.314138
v 6.532816 -7.071071 2.705982
v 4.619399 -8.660258 1.913419
v 2.391177 -9.659263 0.990459
v 1.830127 9.659263 1.830128
v 3.535534 8.660258 3.535536
v 5.000000 7.071071 5.000002
v 6.123725 5.000002 6.123728
v 6.830128 2.588192 6.830131
v 7.071069 0.000000 7.071071
v 6.830128 -2.588192 6.830131
v 6.123725 -5.000002 6.123728
v 5.000000 -7.071071 5.000002
v 3.535534 -8.660258 3.535536
v 1.830127 -9.659263 1.830128
v 0.990457 9.659263 2.391178
v 1.913417 8.660258 4.619400
v 2.705980 7.071071 6.532817
v 3.314135 5.000002 8.001035
v 3.696437 2.588192 8.923995
v 3.826833 0.000000 9.238799
v 3.696437 -2.588192 8.923995
v 3.314135 -5.000002 8.001035
v 2.705980 -7.071071 6.532817
v 1.913417 -8.660258 4.619400
v 0.990457 -9.659263 2.391178
v -0.000001 9.659263 2.588192
v -0.000001 8.660258 5.000001
v -0.000002 7.071071 7.071070
v -0.000002 5.000002 8.660256
v -0.000003 2.588192 9.659261
v -0.000003 0.000000 10.000003
v -0.000003 -2.588192 9.659261
v -0.000002 -5.000002 8.660256
v -0.000002 -7.071071 7.071070
v -0.000001 -8.660258 5.000001
v -0.000001 -9.659263 2.588192
v -0.990459 9.659263 2.391177
v -1.913419 8.660258 4.619399
v -2.705983 7.071071 6.532816
v -3.314139 5.000002 8.001033
v -3.696442 2.588192 8.923992
v -3.826838 0.000000 9.238797
v -3.696442 -2.588192 8.923992
v -3.314139 -5.000002 8.001033
v -2.705983 -7.071071 6.532816
v -1.913419 -8.660258 4.619399
v -0.990459 -9.659263 2.391177
v 0.000000 -10.000005 0.000000
v -1.830129 9.659263 1.830127
v -3.535536 8.660258 3.535534
v -5.000003 7.071071 5.000000
v -6.123728 5.000002 6.123724
v -6.830131 2.588192 6.830127
v -7.071072 0.000000 7.071068
v -6.830131 -2.588192 6.830127
v -6.123728 -5.000002 6.123724
v -5.000003 -7.071071 5.000000
v -3.535536 -8.660258 3.535534
v -1.830129 -9.659263 1.830127
v -2.391178 9.659263 0.990457
v -4.619400 8.660258 1.913416
v -6.532817 7.071071 2.705979
v -8.001035 5.000002 3.314134
v -8.923994 2.588192 3.696436
v -9.238800 0.000000 3.826833
v -8.923994 -2.588192 3.696436
v -8.001035 -5.000002 3.314134
v -6.532817 -7.071071 2.705979
v -4.619400 -8.660258 1.913416
v -2.391178 -9.659263 0.990457
v -2.588192 9.659263 -0.000001
v -5.000002 8.660258 -0.000002
v -7.071070 7.071071 -0.000002
v -8.660256 5.000002 -0.000003
v -9.659261 2.588192 -0.000003
v -10.000004 0.000000 -0.000003
v -9.659261 -2.588192 -0.000003
v -8.660256 -5.000002 -0.000003
v -7.071070 -7.071071 -0.000002
v -5.000002 -8.660258 -0.000002
v -2.588192 -9.659263 -0.000001
v -2.391177 9.659263 -0.990459
v -4.619399 8.660258 -1.913420
v -6.532815 7.071071 -2.705984
v -8.001033 5.000002 -3.314140
v -8.923992 2.588192 -3.696442
v -9.238797 0.000000 -3.826839
v -8.923992 -2.588192 -3.696442
v -8.001033 -5.000002 -3.314140
v -6.532815 -7.071071 -2.705984
v -4.619399 -8.660258 -1.913420
v -2.391177 -9.659263 -0.990459
v -1.830127 9.659263 -1.830129
v -3.535534 8.660258 -3.535537
v -4.999999 7.071071 -5.000003
v -6.123724 5.000002 -6.123729
v -6.830126 2.588192 -6.830132
v -7.071068 0.000000 -7.071073
v -6.830126 -2.588192 -6.830132
v -6.123724 -5.000002 -6.123729
v -4.999999 -7.071071 -5.000003
v -3.535534 -8.660258 -3.535537
v -1.830127 -9.659263 -1.830129
v -0.990457 9.659263 -2.391178
v -1.913416 8.660258 -4.619400
v -2.705978 7.071071 -6.532817
v -3.314134 5.000002 -8.001036
v -3.696435 2.588192 -8.923995
v -3.826832 0.000000 -9.238800
v -3.696435 -2.588192 -8.923995
v -3.314134 -5.000002 -8.001036
v -2.705978 -7.071071 -6.532817
v -1.913416 -8.660258 -4.619400
v -0.990457 -9.659263 -2.391178
v 0.000003 7.071071 -7.071069
v 0.000003 -7.071071 -7.071069
vn 0.0260 -0.9911 -0.1305
vn 0.0759 0.9212 -0.3816
vn 0.1559 -0.6013 -0.7837
vn 0.1935 0.1281 -0.9727
vn 0.1202 0.7876 -0.6043
vn 0.1202 -0.7876 -0.6043
vn 0.1935 -0.1281 -0.9727
vn 0.1559 0.6013 -0.7837
vn 0.0759 -0.9212 -0.3816
vn 0.0260 0.9911 -0.1305
vn 0.1807 -0.3764 -0.9087
vn 0.1807 0.3764 -0.9087
vn 0.5510 -0.1281 -0.8246
vn 0.4439 0.6013 -0.6644
vn 0.2161 -0.9212 -0.3235
vn 0.0739 0.9911 -0.1106
vn 0.5147 -0.3764 -0.7703
vn 0.5147 0.3764 -0.7703
vn 0.0739 -0.9911 -0.1106
vn 0.2161 0.9212 -0.3235
vn 0.4439 -0.6013 -0.6644
vn 0.5510 0.1281 -0.8246
vn 0.3423 0.7876 -0.5123
vn 0.3423 -0.7876 -0.5123
vn 0.6644 -0.6013 -0.4439
vn 0.8246 0.1281 -0.5510
vn 0.5123 0.7876 -0.3423
vn 0.5123 -0.7876 -0.3423
vn 0.8246 -0.1281 -0.5510
vn 0.6644 0.6013 -0.4439
vn 0.3235 -0.9212 -0.2161
vn 0.1106 0.9911 -0.0739
vn 0.7703 -0.3764 -0.5147
vn 0.7703 0.3764 -0.5147
vn 0.1106 -0.9911 -0.0739
vn 0.3235 0.9212 -0.2161
vn 0.1305 0.9911 -0.0260
vn 0.9087 -0.3764 -0.1807
vn 0.9087 0.3764 -0.1807
vn 0.1305 -0.9911 -0.0260
vn 0.3816 0.9212 -0.0759
vn 0.7837 -0.6013 -0.1559
vn 0.9727 0.1281 -0.1935
vn 0.6043 0.7876 -0.1202
vn 0.6043 -0.7876 -0.1202
vn 0.9727 -0.1281 -0.1935
vn 0.7837 0.6013 -0.1559
vn 0.3816 -0.9212 -0.0759
vn 0.6043 -0.7876 0.1202
vn 0.9727 -0.1281 0.1935
vn 0.7837 0.6013 0.1559
vn 0.3816 -0.9212 0.0759
vn 0.1305 0.9911 0.0260
vn 0.9087 -0.3764 0.1807
vn 0.9087 0.3764 0.1807
vn 0.1305 -0.9911 0.0260
vn 0.3816 0.9212 0.0759
vn 0.7837 -0.6013 0.1559
vn 0.9727 0.1281 0.1935
vn 0.6043 0.7876 0.1202
vn 0.3235 0.9212 0.2161
vn 0.6644 -0.6013 0.4439
vn 0.8246 0.1281 0.5510
vn 0.5123 0.7876 0.3423
vn 0.5123 -0.7876 0.3423
vn 0.8246 -0.1281 0.5510
vn 0.6644 0.6013 0.4439
vn 0.3235 -0.9212 0.2161
vn 0.1106 0.9911 0.0739
vn 0.7703 -0.3764 0.5147
vn 0.7703 0.3764 0.5147
vn 0.1106 -0.9911 0.0739
vn 0.2161 -0.9212 0.3235
vn 0.0739 0.9911 0.1106
vn 0.5147 -0.3764 0.7703
vn 0.5147 0.3764 0.7703
vn 0.0739 -0.9911 0.1106
vn 0.2161 0.9212 0.3235
vn 0.4439 -0.6013 0.6644
vn 0.5510 0.1281 0.8246
vn 0.3423 0.7876 0.5123
vn 0.3423 -0.7876 0.5123
vn 0.5510 -0.1281 0.8246
vn 0.4439 0.6013 0.6644
vn 0.1202 0.7876 0.6043
vn 0.1202 -0.7876 0.6043
vn 0.1935 -0.1281 0.9727
vn 0.1559 0.6013 0.7837
vn 0.0759 -0.9212 0.3816
vn 0.0260 0.9911 0.1305
vn 0.1807 -0.3764 0.9087
vn 0.1807 0.3764 0.9087
vn 0.0260 -0.9911 0.1305
vn 0.0759 0.9212 0.3816
vn 0.1559 -0.6013 0.7837
vn 0.1935 0.1281 0.9727
vn -0.0260 -0.9911 0.1305
vn -0.0759 0.9212 0.3816
vn -0.1559 -0.6013 0.7837
vn -0.1935 0.1281 0.9727
vn -0.1202 0.7876 0.6043
vn -0.1202 -0.7876 0.6043
vn -0.1935 -0.1281 0.9727
vn -0.1559 0.6013 0.7837
vn -0.0759 -0.9212 0.3816
vn -0.0260 0.9911 0.1305
vn -0.1807 -0.3764 0.9087
vn -0.1807 0.3764 0.9087
vn -0.4439 0.6013 0.6644
vn -0.2161 -0.9212 0.3235
vn -0.0739 0.9911 0.1106
vn -0.5147 -0.3764 0.7703
vn -0.5147 0.3764 0.7703
vn -0.0739 -0.9911 0.1106
vn -0.2161 0.9212 0.3235
vn -0.4439 -0.6013 0.6644
vn -0.5510 0.1281 0.8246
vn -0.3423 0.7876 0.5123
vn -0.3423 -0.7876 0.5123
vn -0.5510 -0.1281 0.8246
vn -0.5123 0.7876 0.3423
vn -0.5123 -0.7876 0.3423
vn -0.8246 -0.1281 0.5510
vn -0.6644 0.6013 0.4439
vn -0.3235 -0.9212 0.2161
vn -0.1106 0.9911 0.0739
vn -0.7703 -0.3764 0.5147
vn -0.7703 0.3764 0.5147
vn -0.1106 -0.9911 0.0739
vn -0.3235 0.9212 0.2161
vn -0.6644 -0.6013 0.4439
vn -0.8246 0.1281 0.5510
vn -0.9087 0.3764 0.1807
vn -0.1305 -0.9911 0.0260
vn -0.3816 0.9212 0.0759
vn -0.7837 -0.6013 0.1559
vn -0.9727 0.1281 0.1935
vn -0.6043 0.7876 0.1202
vn -0.6043 -0.7876 0.1202
vn -0.9727 -0.1281 0.1935
vn -0.7837 0.6013 0.1559
vn -0.3816 -0.9212 0.0759
vn -0.1305 0.9911 0.0260
vn -0.9087 -0.3764 0.1807
vn -0.7837 0.6013 -0.1559
vn -0.3816 -0.9212 -0.0759
vn -0.1305 0.9911 -0.0260
vn -0.9087 -0.3764 -0.1807
vn -0.9087 0.3764 -0.1807
vn -0.1305 -0.9911 -0.0260
vn -0.3816 0.9212 -0.0759
vn -0.7837 -0.6013 -0.1559
vn -0.9727 0.1281 -0.1935
vn -0.6043 0.7876 -0.1202
vn -0.6043 -0.7876 -0.1202
vn -0.9727 -0.1281 -0.1935
vn -0.8246 0.1281 -0.5510
vn -0.5123 0.7876 -0.3423
vn -0.5123 -0.7876 -0.3423
vn -0.8246 -0.1281 -0.5510
vn -0.6644 0.6013 -0.4439
vn -0.3235 -0.9212 -0.2161
vn -0.1106 0.9911 -0.0739
vn -0.7703 -0.3764 -0.5147
vn -0.7703 0.3764 -0.5147
vn -0.1106 -0.9911 -0.0739
vn -0.3235 0.9212 -0.2161
vn -0.6644 -0.6013 -0.4439
vn -0.5147 0.3764 -0.7703
vn -0.0739 -0.9911 -0.1106
vn -0.2161 0.9212 -0.3235
vn -0.4439 -0.6013 -0.6644
vn -0.5510 0.1281 -0.8246
vn -0.3423 0.7876 -0.5123
vn -0.3423 -0.7876 -0.5123
vn -0.5510 -0.1281 -0.8246
vn -0.4439 0.6013 -0.6644
vn -0.2161 -0.9212 -0.3235
vn -0.0739 0.9911 -0.1106
vn -0.5147 -0.3764 -0.7703
vn -0.1935 -0.1281 -0.9727
vn -0.1559 0.6013 -0.7837
vn -0.0759 -0.9212 -0.3816
vn -0.0260 0.9911 -0.1305
vn -0.1807 -0.3764 -0.9087
vn -0.1807 0.3764 -0.9087
vn -0.0260 -0.9911 -0.1305
vn -0.0759 0.9212 -0.3816
vn -0.1559 -0.6013 -0.7837
vn -0.1935 0.1281 -0.9727
vn -0.1202 0.7876 -0.6043
vn -0.1202 -0.7876 -0.6043
vt 0.818046 0.278769
vt 0.770237 0.212328
vt 0.789271 0.197791
vt 0.296534 0.917600
vt 0.296534 0.965551
vt 0.254167 0.965551
vt 0.254167 0.917600
vt 0.296534 0.581942
vt 0.296534 0.629893
vt 0.254167 0.629893
vt 0.254167 0.581942
vt 0.296534 0.725795
vt 0.296534 0.773746
vt 0.254167 0.773746
vt 0.254167 0.725795
vt 0.296534 0.869648
vt 0.254167 0.869648
vt 0.296534 0.533991
vt 0.254167 0.533991
vt 0.296534 0.677844
vt 0.254167 0.677844
vt 0.296534 0.821697
vt 0.254167 0.821697
vt 0.296534 0.486040
vt 0.254167 0.486040
vt 0.321881 0.178338
vt 0.279455 0.243994
vt 0.302609 0.166082
vt 0.211800 0.725795
vt 0.211800 0.677844
vt 0.211800 0.869648
vt 0.211800 0.821697
vt 0.211800 0.533991
vt 0.211800 0.486040
vt 0.277699 0.158186
vt 0.211800 0.629893
vt 0.211800 0.773746
vt 0.814985 0.187107
vt 0.211800 0.965551
vt 0.211800 0.917600
vt 0.211800 0.581942
vt 0.169433 0.629893
vt 0.169433 0.581942
vt 0.169433 0.773746
vt 0.169433 0.725795
vt 0.169433 0.917600
vt 0.169433 0.869648
vt 0.169433 0.533991
vt 0.169433 0.677844
vt 0.169433 0.821697
vt 0.169433 0.486040
vt 0.246909 0.158195
vt 0.848433 0.183669
vt 0.169433 0.965551
vt 0.212669 0.170911
vt 0.127067 0.677844
vt 0.127067 0.629893
vt 0.127067 0.821697
vt 0.127067 0.773746
vt 0.889256 0.193401
vt 0.127067 0.965551
vt 0.127067 0.917600
vt 0.127067 0.581942
vt 0.127067 0.725795
vt 0.127067 0.869648
vt 0.127067 0.533991
vt 0.127067 0.486040
vt 0.804935 0.533991
vt 0.804935 0.581942
vt 0.762568 0.581942
vt 0.762568 0.533991
vt 0.804935 0.677844
vt 0.804935 0.725795
vt 0.762568 0.725795
vt 0.762568 0.677844
vt 0.804935 0.821697
vt 0.804935 0.869648
vt 0.762568 0.869648
vt 0.762568 0.821697
vt 0.804935 0.486040
vt 0.762568 0.486040
vt 0.207501 0.327258
vt 0.247396 0.338769
vt 0.804935 0.629893
vt 0.762568 0.629893
vt 0.804935 0.773746
vt 0.762568 0.773746
vt 0.886542 0.352424
vt 0.851596 0.365708
vt 0.804935 0.917600
vt 0.804935 0.965551
vt 0.762568 0.965551
vt 0.762568 0.917600
vt 0.720201 0.965551
vt 0.720201 0.917600
vt 0.720201 0.629893
vt 0.720201 0.581942
vt 0.720201 0.773746
vt 0.720201 0.725795
vt 0.720201 0.869648
vt 0.720201 0.533991
vt 0.720201 0.677844
vt 0.720201 0.821697
vt 0.720201 0.486040
vt 0.280755 0.335575
vt 0.820498 0.365653
vt 0.677834 0.533991
vt 0.677834 0.486040
vt 0.307199 0.325370
vt 0.677834 0.677844
vt 0.677834 0.629893
vt 0.677834 0.821697
vt 0.677834 0.773746
vt 0.795272 0.357779
vt 0.677834 0.965551
vt 0.677834 0.917600
vt 0.677834 0.581942
vt 0.677834 0.725795
vt 0.677834 0.869648
vt 0.635468 0.917600
vt 0.635468 0.869648
vt 0.635468 0.581942
vt 0.635468 0.533991
vt 0.635468 0.725795
vt 0.635468 0.677844
vt 0.635468 0.821697
vt 0.635468 0.486040
vt 0.325618 0.310671
vt 0.635468 0.629893
vt 0.635468 0.773746
vt 0.775815 0.345482
vt 0.635468 0.965551
vt 0.761612 0.330696
vt 0.593101 0.965551
vt 0.593101 0.917600
vt 0.593101 0.629893
vt 0.593101 0.581942
vt 0.593101 0.773746
vt 0.593101 0.725795
vt 0.593101 0.869648
vt 0.593101 0.533991
vt 0.593101 0.677844
vt 0.593101 0.821697
vt 0.593101 0.486040
vt 0.339200 0.294554
vt 0.550734 0.869648
vt 0.550734 0.821697
vt 0.550734 0.533991
vt 0.550734 0.486040
vt 0.348004 0.277600
vt 0.550734 0.677844
vt 0.550734 0.629893
vt 0.550734 0.773746
vt 0.751889 0.314631
vt 0.550734 0.965551
vt 0.550734 0.917600
vt 0.550734 0.581942
vt 0.550734 0.725795
vt 0.508367 0.917600
vt 0.508367 0.869648
vt 0.508367 0.581942
vt 0.508367 0.533991
vt 0.508367 0.725795
vt 0.508367 0.677844
vt 0.508367 0.821697
vt 0.508367 0.486040
vt 0.352767 0.260330
vt 0.508367 0.629893
vt 0.508367 0.773746
vt 0.746136 0.297911
vt 0.508367 0.965551
vt 0.466001 0.821697
vt 0.466001 0.773746
vt 0.742838 0.280892
vt 0.466001 0.965551
vt 0.466001 0.917600
vt 0.466001 0.629893
vt 0.466001 0.581942
vt 0.466001 0.725795
vt 0.466001 0.869648
vt 0.466001 0.533991
vt 0.466001 0.677844
vt 0.466001 0.486040
vt 0.353920 0.243036
vt 0.423634 0.869648
vt 0.423634 0.821697
vt 0.423634 0.533991
vt 0.423634 0.486040
vt 0.351622 0.225904
vt 0.423634 0.677844
vt 0.423634 0.629893
vt 0.423634 0.773746
vt 0.744173 0.263501
vt 0.423634 0.965551
vt 0.423634 0.917600
vt 0.423634 0.581942
vt 0.423634 0.725795
vt 0.381267 0.773746
vt 0.381267 0.725795
vt 0.381267 0.917600
vt 0.381267 0.869648
vt 0.381267 0.581942
vt 0.381267 0.533991
vt 0.381267 0.677844
vt 0.381267 0.821697
vt 0.381267 0.486040
vt 0.345781 0.209133
vt 0.381267 0.629893
vt 0.747887 0.245897
vt 0.381267 0.965551
vt 0.338900 0.821697
vt 0.338900 0.773746
vt 0.756793 0.228708
vt 0.338900 0.965551
vt 0.338900 0.917600
vt 0.338900 0.629893
vt 0.338900 0.581942
vt 0.338900 0.725795
vt 0.338900 0.869648
vt 0.338900 0.533991
vt 0.338900 0.677844
vt 0.338900 0.486040
vt 0.336054 0.193055
s 0
usemtl マテリアル
f 110/1/1 9/2/1 20/3/1
f 2/4/2 1/5/2 10/6/2 11/7/2
f 178/8/3 7/9/3 17/10/3 18/11/3
f 5/12/4 4/13/4 14/14/4 15/15/4
f 177/16/5 2/4/5 11/7/5 12/17/5
f 8/18/6 178/8/6 18/11/6 19/19/6
f 6/20/7 5/12/7 15/15/7 16/21/7
f 3/22/8 177/16/8 12/17/8 13/23/8
f 9/24/9 8/18/9 19/19/9 20/25/9
f 1/26/10 21/27/10 10/28/10
f 7/9/11 6/20/11 16/21/11 17/10/11
f 4/13/12 3/22/12 13/23/12 14/14/12
f 16/21/13 15/15/13 27/29/13 28/30/13
f 13/23/14 12/17/14 24/31/14 25/32/14
f 20/25/15 19/19/15 31/33/15 32/34/15
f 10/28/16 21/27/16 22/35/16
f 17/10/17 16/21/17 28/30/17 29/36/17
f 14/14/18 13/23/18 25/32/18 26/37/18
f 110/1/19 20/3/19 32/38/19
f 11/7/20 10/6/20 22/39/20 23/40/20
f 18/11/21 17/10/21 29/36/21 30/41/21
f 15/15/22 14/14/22 26/37/22 27/29/22
f 12/17/23 11/7/23 23/40/23 24/31/23
f 19/19/24 18/11/24 30/41/24 31/33/24
f 30/41/25 29/36/25 40/42/25 41/43/25
f 27/29/26 26/37/26 37/44/26 38/45/26
f 24/31/27 23/40/27 34/46/27 35/47/27
f 31/33/28 30/41/28 41/43/28 42/48/28
f 28/30/29 27/29/29 38/45/29 39/49/29
f 25/32/30 24/31/30 35/47/30 36/50/30
f 32/34/31 31/33/31 42/48/31 43/51/31
f 22/35/32 21/27/32 33/52/32
f 29/36/33 28/30/33 39/49/33 40/42/33
f 26/37/34 25/32/34 36/50/34 37/44/34
f 110/1/35 32/38/35 43/53/35
f 23/40/36 22/39/36 33/54/36 34/46/36
f 33/52/37 21/27/37 44/55/37
f 40/42/38 39/49/38 50/56/38 51/57/38
f 37/44/39 36/50/39 47/58/39 48/59/39
f 110/1/40 43/53/40 54/60/40
f 34/46/41 33/54/41 44/61/41 45/62/41
f 41/43/42 40/42/42 51/57/42 52/63/42
f 38/45/43 37/44/43 48/59/43 49/64/43
f 35/47/44 34/46/44 45/62/44 46/65/44
f 42/48/45 41/43/45 52/63/45 53/66/45
f 39/49/46 38/45/46 49/64/46 50/56/46
f 36/50/47 35/47/47 46/65/47 47/58/47
f 43/51/48 42/48/48 53/66/48 54/67/48
f 53/68/49 52/69/49 63/70/49 64/71/49
f 50/72/50 49/73/50 60/74/50 61/75/50
f 47/76/51 46/77/51 57/78/51 58/79/51
f 54/80/52 53/68/52 64/71/52 65/81/52
f 44/82/53 21/27/53 55/83/53
f 51/84/54 50/72/54 61/75/54 62/85/54
f 48/86/55 47/76/55 58/79/55 59/87/55
f 110/1/56 54/88/56 65/89/56
f 45/90/57 44/91/57 55/92/57 56/93/57
f 52/69/58 51/84/58 62/85/58 63/70/58
f 49/73/59 48/86/59 59/87/59 60/74/59
f 46/77/60 45/90/60 56/93/60 57/78/60
f 56/93/61 55/92/61 66/94/61 67/95/61
f 63/70/62 62/85/62 73/96/62 74/97/62
f 60/74/63 59/87/63 70/98/63 71/99/63
f 57/78/64 56/93/64 67/95/64 68/100/64
f 64/71/65 63/70/65 74/97/65 75/101/65
f 61/75/66 60/74/66 71/99/66 72/102/66
f 58/79/67 57/78/67 68/100/67 69/103/67
f 65/81/68 64/71/68 75/101/68 76/104/68
f 55/83/69 21/27/69 66/105/69
f 62/85/70 61/75/70 72/102/70 73/96/70
f 59/87/71 58/79/71 69/103/71 70/98/71
f 110/1/72 65/89/72 76/106/72
f 76/104/73 75/101/73 86/107/73 87/108/73
f 66/105/74 21/27/74 77/109/74
f 73/96/75 72/102/75 83/110/75 84/111/75
f 70/98/76 69/103/76 80/112/76 81/113/76
f 110/1/77 76/106/77 87/114/77
f 67/95/78 66/94/78 77/115/78 78/116/78
f 74/97/79 73/96/79 84/111/79 85/117/79
f 71/99/80 70/98/80 81/113/80 82/118/80
f 68/100/81 67/95/81 78/116/81 79/119/81
f 75/101/82 74/97/82 85/117/82 86/107/82
f 72/102/83 71/99/83 82/118/83 83/110/83
f 69/103/84 68/100/84 79/119/84 80/112/84
f 79/119/85 78/116/85 89/120/85 90/121/85
f 86/107/86 85/117/86 96/122/86 97/123/86
f 83/110/87 82/118/87 93/124/87 94/125/87
f 80/112/88 79/119/88 90/121/88 91/126/88
f 87/108/89 86/107/89 97/123/89 98/127/89
f 77/109/90 21/27/90 88/128/90
f 84/111/91 83/110/91 94/125/91 95/129/91
f 81/113/92 80/112/92 91/126/92 92/130/92
f 110/1/93 87/114/93 98/131/93
f 78/116/94 77/115/94 88/132/94 89/120/94
f 85/117/95 84/111/95 95/129/95 96/122/95
f 82/118/96 81/113/96 92/130/96 93/124/96
f 110/1/97 98/131/97 109/133/97
f 89/120/98 88/132/98 99/134/98 100/135/98
f 96/122/99 95/129/99 106/136/99 107/137/99
f 93/124/100 92/130/100 103/138/100 104/139/100
f 90/121/101 89/120/101 100/135/101 101/140/101
f 97/123/102 96/122/102 107/137/102 108/141/102
f 94/125/103 93/124/103 104/139/103 105/142/103
f 91/126/104 90/121/104 101/140/104 102/143/104
f 98/127/105 97/123/105 108/141/105 109/144/105
f 88/128/106 21/27/106 99/145/106
f 95/129/107 94/125/107 105/142/107 106/136/107
f 92/130/108 91/126/108 102/143/108 103/138/108
f 102/143/109 101/140/109 113/146/109 114/147/109
f 109/144/110 108/141/110 120/148/110 121/149/110
f 99/145/111 21/27/111 111/150/111
f 106/136/112 105/142/112 117/151/112 118/152/112
f 103/138/113 102/143/113 114/147/113 115/153/113
f 110/1/114 109/133/114 121/154/114
f 100/135/115 99/134/115 111/155/115 112/156/115
f 107/137/116 106/136/116 118/152/116 119/157/116
f 104/139/117 103/138/117 115/153/117 116/158/117
f 101/140/118 100/135/118 112/156/118 113/146/118
f 108/141/119 107/137/119 119/157/119 120/148/119
f 105/142/120 104/139/120 116/158/120 117/151/120
f 113/146/121 112/156/121 123/159/121 124/160/121
f 120/148/122 119/157/122 130/161/122 131/162/122
f 117/151/123 116/158/123 127/163/123 128/164/123
f 114/147/124 113/146/124 124/160/124 125/165/124
f 121/149/125 120/148/125 131/162/125 132/166/125
f 111/150/126 21/27/126 122/167/126
f 118/152/127 117/151/127 128/164/127 129/168/127
f 115/153/128 114/147/128 125/165/128 126/169/128
f 110/1/129 121/154/129 132/170/129
f 112/156/130 111/155/130 122/171/130 123/159/130
f 119/157/131 118/152/131 129/168/131 130/161/131
f 116/158/132 115/153/132 126/169/132 127/163/132
f 126/169/133 125/165/133 136/172/133 137/173/133
f 110/1/134 132/170/134 143/174/134
f 123/159/135 122/171/135 133/175/135 134/176/135
f 130/161/136 129/168/136 140/177/136 141/178/136
f 127/163/137 126/169/137 137/173/137 138/179/137
f 124/160/138 123/159/138 134/176/138 135/180/138
f 131/162/139 130/161/139 141/178/139 142/181/139
f 128/164/140 127/163/140 138/179/140 139/182/140
f 125/165/141 124/160/141 135/180/141 136/172/141
f 132/166/142 131/162/142 142/181/142 143/183/142
f 122/167/143 21/27/143 133/184/143
f 129/168/144 128/164/144 139/182/144 140/177/144
f 136/172/145 135/180/145 146/185/145 147/186/145
f 143/183/146 142/181/146 153/187/146 154/188/146
f 133/184/147 21/27/147 144/189/147
f 140/177/148 139/182/148 150/190/148 151/191/148
f 137/173/149 136/172/149 147/186/149 148/192/149
f 110/1/150 143/174/150 154/193/150
f 134/176/151 133/175/151 144/194/151 145/195/151
f 141/178/152 140/177/152 151/191/152 152/196/152
f 138/179/153 137/173/153 148/192/153 149/197/153
f 135/180/154 134/176/154 145/195/154 146/185/154
f 142/181/155 141/178/155 152/196/155 153/187/155
f 139/182/156 138/179/156 149/197/156 150/190/156
f 149/197/157 148/192/157 159/198/157 160/199/157
f 146/185/158 145/195/158 156/200/158 157/201/158
f 153/187/159 152/196/159 163/202/159 164/203/159
f 150/190/160 149/197/160 160/199/160 161/204/160
f 147/186/161 146/185/161 157/201/161 158/205/161
f 154/188/162 153/187/162 164/203/162 165/206/162
f 144/189/163 21/27/163 155/207/163
f 151/191/164 150/190/164 161/204/164 162/208/164
f 148/192/165 147/186/165 158/205/165 159/198/165
f 110/1/166 154/193/166 165/209/166
f 145/195/167 144/194/167 155/210/167 156/200/167
f 152/196/168 151/191/168 162/208/168 163/202/168
f 159/198/169 158/205/169 169/211/169 170/212/169
f 110/1/170 165/209/170 176/213/170
f 156/200/171 155/210/171 166/214/171 167/215/171
f 163/202/172 162/208/172 173/216/172 174/217/172
f 160/199/173 159/198/173 170/212/173 171/218/173
f 157/201/174 156/200/174 167/215/174 168/219/174
f 164/203/175 163/202/175 174/217/175 175/220/175
f 161/204/176 160/199/176 171/218/176 172/221/176
f 158/205/177 157/201/177 168/219/177 169/211/177
f 165/206/178 164/203/178 175/220/178 176/222/178
f 155/207/179 21/27/179 166/223/179
f 162/208/180 161/204/180 172/221/180 173/216/180
f 172/221/181 171/218/181 5/12/181 6/20/181
f 169/211/182 168/219/182 177/16/182 3/22/182
f 176/222/183 175/220/183 8/18/183 9/24/183
f 166/223/184 21/27/184 1/26/184
f 173/216/185 172/221/185 6/20/185 7/9/185
f 170/212/186 169/211/186 3/22/186 4/13/186
f 110/1/187 176/213/187 9/2/187
f 167/215/188 166/214/188 1/5/188 2/4/188
f 174/217/189 173/216/189 7/9/189 178/8/189
f 171/218/190 170/212/190 4/13/190 5/12/190
f 168/219/191 167/215/191 2/4/191 177/16/191
f 175/220/192 174/217/192 178/8/192 8/18/192
